<svg width="16" height="16" viewBox="0 0 16 16" fill="none" xmlns="http://www.w3.org/2000/svg">
<path d="M1.63599 5.293C1.82351 5.10553 2.07782 5.00021 2.34299 5.00021C2.60815 5.00021 2.86246 5.10553 3.04999 5.293L7.99999 10.243L12.95 5.293C13.1386 5.11084 13.3912 5.01005 13.6534 5.01233C13.9156 5.0146 14.1664 5.11977 14.3518 5.30518C14.5372 5.49059 14.6424 5.7414 14.6447 6.0036C14.6469 6.2658 14.5461 6.5184 14.364 6.707L8.70699 12.364C8.51946 12.5515 8.26515 12.6568 7.99999 12.6568C7.73482 12.6568 7.48052 12.5515 7.29299 12.364L1.63599 6.707C1.44852 6.51947 1.3432 6.26516 1.3432 6C1.3432 5.73484 1.44852 5.48053 1.63599 5.293Z" fill="white"/>
</svg>
